<?xml version="1.0" encoding="UTF-8" standalone="no"?>
<!DOCTYPE svg PUBLIC "-//W3C//DTD SVG 1.1//EN" "http://www.w3.org/Graphics/SVG/1.1/DTD/svg11.dtd">
<svg width="100%" height="100%" viewBox="0 0 2732 2048" version="1.1" xmlns="http://www.w3.org/2000/svg" xmlns:xlink="http://www.w3.org/1999/xlink" xml:space="preserve" xmlns:serif="http://www.serif.com/" style="fill-rule:evenodd;clip-rule:evenodd;stroke-linejoin:round;stroke-miterlimit:2;">
    <g transform="matrix(1.31196,0,0,1.3345,-350.71,-290.265)">
        <g id="_9---ECONOMY-ANALYSIS" serif:id="9 - ECONOMY ANALYSIS">
            <g id="CHART-POSTER-2" serif:id="CHART POSTER 2">
                <g>
                    <rect x="1396.99" y="1075.97" width="576.314" height="458.69" style="fill:rgb(255,175,164);"/>
                    <path d="M1563.44,1286.35L1473.2,1286.35L1473.2,1479L1563.44,1479L1563.44,1286.35ZM1917.43,1295.49L1827.19,1295.49L1827.19,1479L1917.43,1479L1917.43,1295.49ZM1799.44,1244.09L1709.19,1244.09L1709.19,1479L1799.44,1479L1799.44,1244.09ZM1681.44,1178.31L1591.19,1178.31L1591.19,1479L1681.44,1479L1681.44,1178.31ZM1892.04,1265.27L1851.41,1265.27L1851.41,1287.09L1892.04,1287.09L1892.04,1265.27ZM1536.9,1256.79L1496.27,1256.79L1496.27,1278.6L1536.9,1278.6L1536.9,1256.79ZM1774.63,1215.95L1734,1215.95L1734,1237.77L1774.63,1237.77L1774.63,1215.95ZM1655.17,1148.66L1614.55,1148.66L1614.55,1170.48L1655.17,1170.48L1655.17,1148.66Z" style="fill:rgb(255,241,226);"/>
                </g>
                <path d="M1733.51,1444.23L1910.84,1255.73C1913.37,1253.04 1917.62,1252.91 1920.32,1255.44C1923.01,1257.98 1923.14,1262.23 1920.61,1264.92L1737.76,1459.29C1736.39,1460.74 1734.45,1461.51 1732.47,1461.39C1730.48,1461.27 1728.64,1460.27 1727.47,1458.66L1600.41,1285.49L1464.76,1465.85C1462.53,1468.81 1458.33,1469.41 1455.37,1467.18C1452.41,1464.96 1451.81,1460.75 1454.04,1457.79L1595.11,1270.21C1596.39,1268.51 1598.39,1267.52 1600.51,1267.53C1602.63,1267.54 1604.62,1268.56 1605.88,1270.27L1733.51,1444.23Z" style="fill:rgb(220,93,60);"/>
            </g>
            <g id="CURVE" transform="matrix(0.762218,0,0,0.749345,259.14,217.392)">
                <path d="M1820.3,573.019C1819.38,570.431 1818.88,567.644 1818.88,564.741C1818.88,551.135 1829.92,540.089 1843.53,540.089C1857.13,540.089 1868.18,551.135 1868.18,564.741C1868.18,578.346 1857.13,589.393 1843.53,589.393C1840.22,589.393 1837.07,588.74 1834.18,587.558L1587.46,876.045C1589.04,879.296 1589.93,882.946 1589.93,886.802C1589.93,900.408 1578.88,911.454 1565.28,911.454C1551.67,911.454 1540.63,900.408 1540.63,886.802C1540.63,886.129 1540.65,885.462 1540.71,884.802L1517.21,868.494C1513.03,871.738 1507.79,873.671 1502.1,873.671C1499.34,873.671 1496.69,873.218 1494.22,872.384L1244.98,1200.85C1245.74,1203.23 1246.15,1205.76 1246.15,1208.39C1246.15,1221.99 1235.11,1233.04 1221.5,1233.04C1207.89,1233.04 1196.85,1221.99 1196.85,1208.39C1196.85,1207.06 1196.95,1205.76 1197.15,1204.5L1043.52,1050.52C1040.09,1052.33 1036.18,1053.36 1032.03,1053.36C1029.55,1053.36 1027.15,1052.99 1024.89,1052.3L757.351,1468.8C759.534,1472.48 760.788,1476.77 760.788,1481.36C760.788,1494.96 749.742,1506.01 736.136,1506.01C722.53,1506.01 711.484,1494.96 711.484,1481.36C711.484,1467.75 722.53,1456.7 736.136,1456.7C737.814,1456.7 739.452,1456.87 741.037,1457.19L1009.64,1039.03C1008.19,1035.89 1007.38,1032.39 1007.38,1028.71C1007.38,1015.1 1018.43,1004.05 1032.03,1004.05C1045.64,1004.05 1056.69,1015.1 1056.69,1028.71C1056.69,1030.76 1056.43,1032.76 1055.96,1034.67L1208.43,1187.49C1212.22,1185.11 1216.7,1183.74 1221.5,1183.74C1224.99,1183.74 1228.31,1184.46 1231.32,1185.77L1479.45,858.764C1478.16,855.776 1477.44,852.48 1477.44,849.019C1477.44,835.413 1488.49,824.367 1502.1,824.367C1515.7,824.367 1526.75,835.413 1526.75,849.019C1526.75,849.594 1526.73,850.165 1526.69,850.731L1550.38,867.168C1554.52,864.02 1559.68,862.15 1565.28,862.15C1567.68,862.15 1570,862.494 1572.19,863.133L1820.3,573.019Z" style="fill:rgb(255,175,164);"/>
            </g>
            <g id="CHART-POSTER-ONE" serif:id="CHART POSTER ONE">
                <rect x="673.026" y="489.679" width="597.124" height="443.446" style="fill:rgb(255,241,226);"/>
                <path d="M792.835,564.618L752.205,564.618L752.205,889.933L792.835,889.933L792.835,564.618ZM873.452,535.581L832.823,535.581L832.823,889.761L873.452,889.761L873.452,535.581ZM954.07,609.909L913.441,609.909L913.441,889.573L954.07,889.573L954.07,609.909ZM1034.69,563.769L994.058,563.769L994.058,889.369L1034.69,889.369L1034.69,563.769ZM1115.31,654.236L1074.68,654.236L1074.68,889.147L1115.31,889.147L1115.31,654.236ZM1195.92,719.896L1155.29,719.896L1155.29,888.905L1195.92,888.905L1195.92,719.896Z" style="fill:rgb(255,175,164);fill-opacity:0.64;"/>
            </g>
            <g id="UP-ARROW" serif:id="UP ARROW" transform="matrix(4.747e-17,-0.775243,0.908422,5.56248e-17,148.671,2354.33)">
                <path d="M1236,1329.01L1236,1239.65L1372.92,1239.65L1372.92,1178.49L1549.73,1284.33L1372.92,1390.17L1372.92,1329.01L1236,1329.01Z" style="fill:rgb(229,115,78);"/>
            </g>
            <g id="DOWN-ARROW" serif:id="DOWN ARROW" transform="matrix(4.747e-17,0.775243,-0.908422,5.56248e-17,3003.24,-447.894)">
                <path d="M1236,1329.01L1236,1239.65L1372.92,1239.65L1372.92,1178.49L1549.73,1284.33L1372.92,1390.17L1372.92,1329.01L1236,1329.01Z" style="fill:rgb(255,176,0);"/>
            </g>
            <g id="DOLLAR-" serif:id="DOLLAR ">
                <g transform="matrix(1,0,0,1,7.68225,2.33985)">
                    <circle cx="1586.16" cy="1000.86" r="135.295" style="fill:rgb(255,205,128);"/>
                </g>
                <g transform="matrix(0.941798,-0.33618,0.33618,0.941798,-251.674,588.663)">
                    <g transform="matrix(1.05464,0.000379216,-0.000281715,0.783484,-312.137,128.316)">
                        <path d="M1813.36,1001.02L1808.35,1001.02L1808.35,991.66L1817.09,991.66C1819.16,991.66 1820.83,993.756 1820.83,996.34L1820.83,1012.17C1828.48,1012.6 1835.82,1014.14 1842.84,1016.78C1851.81,1020.15 1860.27,1025.32 1868.21,1032.28C1869.11,1033.06 1869.68,1034.3 1869.79,1035.66C1869.89,1037.02 1869.52,1038.37 1868.76,1039.36L1851.92,1061.3C1850.65,1062.95 1848.62,1063.21 1847.11,1061.91C1839.28,1055.18 1830.52,1051.08 1820.83,1049.6L1820.83,1102.35C1856.92,1111.93 1874.26,1133.58 1873.77,1165.98C1873.56,1183.58 1868.33,1198.16 1858.14,1209.67C1848.83,1220.57 1836.41,1227.59 1820.83,1230.58L1820.83,1257.78C1820.83,1260.36 1819.16,1262.45 1817.09,1262.45L1808.51,1262.45L1808.51,1253.1L1813.36,1253.1L1813.36,1226.49C1813.36,1224.12 1814.77,1222.13 1816.65,1221.85C1831.98,1219.53 1844.13,1213.26 1853.09,1202.78C1861.73,1193.02 1866.12,1180.7 1866.3,1165.82C1866.74,1136.67 1849.77,1118.79 1816.39,1110.78C1814.63,1110.35 1813.36,1108.42 1813.36,1106.18L1813.36,1044.46C1813.36,1043.17 1813.79,1041.94 1814.54,1041.05C1815.29,1040.17 1816.3,1039.71 1817.33,1039.8C1828.9,1040.71 1839.35,1044.79 1848.67,1052.02L1860.27,1036.91C1854.07,1032.05 1847.55,1028.32 1840.69,1025.75C1833.2,1022.93 1825.33,1021.49 1817.06,1021.4C1815.01,1021.38 1813.36,1019.29 1813.36,1016.72L1813.36,1001.02ZM1820.83,1192.73C1826.26,1190.67 1830.23,1187.77 1832.62,1183.82C1834.11,1181.27 1835.2,1178.4 1835.89,1175.22L1843.1,1177.71C1842.15,1182.01 1840.66,1185.89 1838.61,1189.41C1834.69,1195.88 1827.84,1200.68 1817.87,1203.33C1816.77,1203.62 1815.62,1203.28 1814.74,1202.39C1813.87,1201.5 1813.36,1200.16 1813.36,1198.75L1813.36,1165.67L1820.83,1165.67L1820.83,1192.73ZM1779.95,1060.38C1781.26,1056.15 1782.97,1052.63 1785.04,1049.8C1785.09,1049.73 1785.15,1049.66 1785.2,1049.59C1789.87,1043.94 1795.42,1040.68 1801.83,1039.81C1802.88,1039.67 1803.94,1040.1 1804.73,1040.98C1805.52,1041.87 1805.97,1043.14 1805.97,1044.46L1805.97,1071.55L1798.5,1071.55L1798.5,1050.19C1795.52,1051.37 1792.85,1053.38 1790.48,1056.22C1789.01,1058.26 1787.83,1060.81 1786.89,1063.84C1786.87,1063.92 1786.84,1064 1786.81,1064.08C1785.68,1067.22 1785.16,1071.03 1785.16,1075.46L1777.69,1075.46C1777.69,1069.59 1778.47,1064.57 1779.95,1060.38Z" style="fill:rgb(253,163,31);"/>
                    </g>
                    <g transform="matrix(1.05464,0.000379216,-0.000281715,0.783484,-312.137,128.316)">
                        <path d="M1783.26,1095.07C1779.58,1089.81 1777.69,1083.29 1777.69,1075.46L1785.16,1075.46C1785.16,1080.83 1786.37,1085.33 1788.9,1088.93L1788.99,1089.06C1790.97,1092.1 1794.16,1094.5 1798.5,1096.46L1798.5,1071.55L1805.97,1071.55L1805.97,1102.78C1805.97,1104.23 1805.43,1105.6 1804.51,1106.49C1803.6,1107.37 1802.4,1107.68 1801.28,1107.31C1792.62,1104.45 1786.67,1100.24 1783.26,1095.07Z" style="fill:rgb(253,163,31);"/>
                    </g>
                    <g transform="matrix(1.05464,0.000379216,-0.000281715,0.783484,-312.137,128.316)">
                        <path d="M1820.83,1143.28L1820.83,1165.67L1813.36,1165.67L1813.36,1137.6C1813.36,1136.23 1813.84,1134.93 1814.67,1134.04C1815.51,1133.15 1816.61,1132.76 1817.69,1132.98C1828.12,1135.11 1835.08,1139.32 1838.8,1144.95L1838.88,1145.09C1842.5,1151.01 1844.33,1157.85 1844.33,1165.63C1844.33,1169.98 1843.91,1174.01 1843.1,1177.71L1835.89,1175.22C1836.54,1172.28 1836.86,1169.08 1836.86,1165.63C1836.86,1160.04 1835.58,1155.12 1833,1150.86C1830.66,1147.36 1826.57,1144.94 1820.83,1143.28Z" style="fill:rgb(253,163,31);"/>
                    </g>
                    <g transform="matrix(1.05464,0.000379216,-0.000281715,0.783484,-312.137,128.316)">
                        <path d="M1798.5,1137.85C1763.8,1128.18 1747.32,1107.1 1748.11,1075.93C1748.41,1057.14 1753.22,1042.45 1762.31,1031.75C1770.63,1021.96 1782.66,1015.49 1798.5,1012.61L1798.5,996.34C1798.5,993.756 1800.17,991.66 1802.23,991.66L1808.35,991.66L1808.35,1001.02L1805.97,1001.02L1805.97,1016.72C1805.97,1019.1 1804.55,1021.1 1802.66,1021.37C1787.11,1023.64 1775.33,1029.26 1767.42,1038.57C1759.72,1047.64 1755.84,1060.19 1755.58,1076.18C1754.87,1104.1 1771.01,1121.4 1802.97,1129.48C1804.71,1129.92 1805.97,1131.84 1805.97,1134.06L1805.97,1198.75C1805.97,1200.07 1805.52,1201.32 1804.75,1202.21C1803.97,1203.1 1802.93,1203.53 1801.88,1203.41C1792.53,1202.31 1784.61,1199.69 1778.13,1195.62C1772.43,1192.42 1767.33,1188.45 1762.82,1183.7L1748.51,1198.8C1755.42,1204.94 1763.08,1210.12 1771.46,1214.35C1781.24,1219.15 1791.51,1221.63 1802.28,1221.81C1804.33,1221.85 1805.97,1223.93 1805.97,1226.49L1805.97,1253.1L1808.51,1253.1L1808.51,1262.45L1802.23,1262.45C1800.17,1262.45 1798.5,1260.36 1798.5,1257.78L1798.5,1231.02C1788.14,1230.38 1778.22,1227.72 1768.71,1223.05C1758.08,1217.69 1748.59,1210.91 1740.2,1202.72C1739.32,1201.86 1738.79,1200.53 1738.77,1199.12C1738.74,1197.71 1739.23,1196.36 1740.09,1195.45L1760.48,1173.94C1761.92,1172.41 1764.06,1172.48 1765.44,1174.11C1769.95,1179.42 1775.23,1183.75 1781.25,1187.12L1781.41,1187.21C1786.21,1190.24 1791.91,1192.32 1798.5,1193.49L1798.5,1137.85Z" style="fill:rgb(253,163,31);"/>
                    </g>
                </g>
            </g>
            <g id="MAGNIFYING-GLASS" serif:id="MAGNIFYING GLASS">
                <g>
                    <path d="M1622.38,1155.44C1612.33,1157.51 1601.91,1158.6 1591.25,1158.6C1582.41,1158.6 1575.25,1151.43 1575.25,1142.6C1575.25,1133.77 1582.41,1126.6 1591.25,1126.6C1658.44,1126.6 1712.99,1072.05 1712.99,1004.86C1712.99,937.668 1658.44,883.118 1591.25,883.118C1582.41,883.118 1575.25,875.949 1575.25,867.118C1575.25,858.288 1582.41,851.118 1591.25,851.118C1676.1,851.118 1744.99,920.007 1744.99,1004.86C1744.99,1067.75 1707.14,1121.87 1653,1145.67L1753.3,1382.27C1756.75,1390.4 1752.95,1399.8 1744.82,1403.24C1736.69,1406.69 1727.29,1402.89 1723.84,1394.76L1622.38,1155.44Z" style="fill:rgb(220,93,60);"/>
                    <g transform="matrix(1,0,0,1,-20.3138,-7.3432)">
                        <path d="M1611.56,1133.94C1544.37,1133.94 1489.82,1079.39 1489.82,1012.2C1489.82,945.012 1544.37,890.462 1611.56,890.462C1620.39,890.462 1627.56,883.292 1627.56,874.462C1627.56,865.631 1620.39,858.462 1611.56,858.462C1526.71,858.462 1457.82,927.35 1457.82,1012.2C1457.82,1097.05 1526.71,1165.94 1611.56,1165.94C1620.39,1165.94 1627.56,1158.77 1627.56,1149.94C1627.56,1141.11 1620.39,1133.94 1611.56,1133.94Z" style="fill:rgb(220,93,60);"/>
                    </g>
                </g>
            </g>
            <g id="BOY">
                <path d="M1806.68,1207.57C1806.68,1207.57 1798.07,1175.23 1800.92,1134C1804.94,1076.01 1842.05,1025.55 1896.21,1004.43C1950.36,983.315 2011.84,995.333 2054.05,1035.29C2063.8,1044.56 2072.69,1055.45 2080.17,1068.26C2116.93,1131.26 2128.85,1200.71 2097.89,1269.33C2097.89,1269.33 2117.84,1400.36 2089.1,1494.81C2074.6,1542.25 2033.46,1576.65 1984.21,1582.53C1982.55,1582.75 1980.88,1582.94 1979.19,1583.14C1934.21,1588.51 1890.09,1567.9 1865.33,1529.97C1817.12,1456.11 1742.97,1342.51 1742.97,1342.51C1742.97,1342.51 1701.01,1346.16 1684.8,1347.57C1679,1348.09 1673.81,1344 1672.96,1338.24C1672.49,1334.79 1673.57,1330.99 1678.5,1327.77C1678.5,1327.77 1673.29,1327.73 1669.21,1326.74C1662.77,1325.19 1660.19,1319.68 1659.91,1313.78C1659.65,1308.23 1661.29,1301.82 1668.84,1298.06C1668.84,1298.06 1668.84,1298.06 1668.84,1298.06C1659.33,1299.85 1650.11,1293.78 1648.01,1284.34C1647.92,1283.96 1647.84,1283.6 1647.77,1283.26C1647,1279.83 1647.49,1276.24 1649.14,1273.14C1650.7,1270.19 1653.39,1266.96 1657.99,1265.01C1657.99,1265.01 1653.51,1263.62 1648.67,1262.12C1641.68,1259.95 1636.91,1253.49 1636.91,1246.17C1636.91,1246.17 1636.91,1246.16 1636.91,1246.16C1636.91,1239.67 1640.83,1233.81 1646.84,1231.33C1659.89,1225.92 1681.21,1217.1 1681.21,1217.1C1681.21,1217.1 1653.75,1182.08 1665.17,1171.79C1667.2,1169.96 1671.73,1168.9 1685.05,1180.24C1690.08,1184.52 1709.61,1189.99 1734.32,1186.6C1734.32,1186.6 1766.65,1186.4 1806.68,1207.57ZM1836.4,830.734C1878.41,830.734 1912.52,864.843 1912.52,906.857C1912.52,948.87 1878.41,982.98 1836.4,982.98C1794.38,982.98 1760.27,948.87 1760.27,906.857C1760.27,864.843 1794.38,830.734 1836.4,830.734Z" style="fill:rgb(168,207,204);"/>
                <path d="M1740.39,1342.74L1757.07,1340.86C1759.26,1340.61 1761.24,1342.19 1761.49,1344.39C1761.74,1346.58 1760.16,1348.56 1757.96,1348.81L1747.82,1349.95L1742.97,1342.51L1740.39,1342.74ZM1661.95,1321.4L1710.14,1316.95C1712.34,1316.74 1714.29,1318.36 1714.49,1320.56C1714.7,1322.76 1713.08,1324.71 1710.88,1324.91L1678.27,1327.92C1678.34,1327.87 1678.42,1327.82 1678.5,1327.77C1678.5,1327.77 1673.29,1327.73 1669.21,1326.74C1665.76,1325.91 1663.42,1323.95 1661.95,1321.4ZM1653.31,1293.58C1653.67,1293.37 1654.08,1293.21 1654.51,1293.11L1699.15,1283.49C1701.3,1283.02 1703.43,1284.4 1703.9,1286.56C1704.36,1288.71 1702.99,1290.84 1700.83,1291.31L1668.34,1298.32C1668.5,1298.23 1668.67,1298.14 1668.84,1298.06C1668.84,1298.06 1668.84,1298.06 1668.84,1298.06C1663.04,1299.15 1657.35,1297.32 1653.31,1293.58ZM1645.24,1260.62L1692.86,1245.95C1694.97,1245.3 1697.21,1246.48 1697.86,1248.59C1698.51,1250.7 1697.32,1252.94 1695.21,1253.59L1657.6,1265.18C1657.73,1265.12 1657.86,1265.06 1657.99,1265.01C1657.99,1265.01 1653.51,1263.62 1648.67,1262.12C1647.46,1261.74 1646.31,1261.24 1645.24,1260.62ZM1676.38,1210.43L1693.04,1203.54C1695.08,1202.69 1697.42,1203.66 1698.27,1205.7C1699.11,1207.75 1698.14,1210.09 1696.1,1210.93L1681.2,1217.09C1681.07,1216.92 1679.05,1214.33 1676.38,1210.43Z" style="fill:rgb(130,181,178);"/>
                <path d="M1806.31,1206.06C1804.68,1199.24 1798.43,1170.01 1800.92,1134C1804.94,1076.01 1842.05,1025.55 1896.21,1004.43C1950.36,983.315 2011.84,995.333 2054.05,1035.29C2063.8,1044.56 2072.69,1055.45 2080.17,1068.26C2116.93,1131.26 2128.85,1200.71 2097.89,1269.33C2097.89,1269.33 2117.84,1400.36 2089.1,1494.81C2074.6,1542.25 2033.46,1576.65 1984.21,1582.53C1982.55,1582.75 1980.88,1582.94 1979.19,1583.14C1934.21,1588.51 1890.09,1567.9 1865.33,1529.97L1832.32,1479.4L1944.55,1348.24C1885.88,1256.91 1821.98,1215.35 1806.31,1206.06Z" style="fill:url(#_Linear1);"/>
                <path d="M1944.12,1347.58C1944.32,1347.77 1944.51,1348 1944.67,1348.24L2017.16,1457.66C2018.38,1459.51 2017.88,1461.99 2016.04,1463.21C2014.2,1464.43 2011.72,1463.92 2010.5,1462.08L1939.21,1354.48L1944.55,1348.24L1944.12,1347.58ZM2098.59,1274.39L2098.77,1275.81L2098.55,1276.27C2098.55,1276.27 2082.54,1187.14 2059.57,1119C2059.02,1117.59 2059.66,1116 2061.02,1115.36C2062.38,1114.71 2064.01,1115.23 2064.76,1116.54C2076.99,1140.29 2093.76,1175.84 2112.35,1223.68C2112.08,1225.1 2111.8,1226.52 2111.5,1227.93L2111.49,1227.98L2111.35,1228.64L2111.34,1228.7L2111.19,1229.37L2111.18,1229.41C2110.88,1230.82 2110.55,1232.23 2110.21,1233.63L2110.2,1233.68L2110.04,1234.32L2110.02,1234.42L2109.87,1235.04L2109.83,1235.16L2109.68,1235.77L2109.65,1235.88L2109.49,1236.51L2109.48,1236.55C2109.24,1237.47 2108.99,1238.39 2108.74,1239.32L2108.72,1239.38L2108.56,1239.97L2108.51,1240.14L2108.36,1240.68L2108.3,1240.89L2108.15,1241.42L2108.09,1241.64L2107.94,1242.16L2107.88,1242.38L2107.72,1242.91L2107.67,1243.09L2107.5,1243.65C2107.43,1243.89 2107.36,1244.13 2107.28,1244.37L2107.09,1244.99L2107.06,1245.09L2106.91,1245.59L2106.83,1245.85L2106.68,1246.31L2106.59,1246.61L2106.45,1247.05L2106.35,1247.37L2106.21,1247.8L2106.1,1248.13L2105.96,1248.56L2105.85,1248.89L2105.71,1249.31L2105.6,1249.65L2105.46,1250.07L2105.32,1250.47L2105.22,1250.79L2105.09,1251.15L2104.96,1251.54L2104.83,1251.92L2104.69,1252.31L2104.56,1252.68L2104.42,1253.07L2104.29,1253.44L2104.15,1253.84L2104.02,1254.2L2103.87,1254.61L2103.74,1254.96L2103.59,1255.39L2103.47,1255.72L2103.28,1256.22L2103.18,1256.48L2102.9,1257.23L2102.8,1257.48L2102.61,1257.99L2102.49,1258.3L2102.32,1258.75L2102.19,1259.08L2102.02,1259.52L2101.89,1259.85L2101.72,1260.29L2101.59,1260.62L2101.41,1261.07L2101.28,1261.38L2101.08,1261.87L2100.97,1262.14L2100.71,1262.77L2100.66,1262.9L2100.34,1263.66L2100.25,1263.89L2100.02,1264.42L2099.9,1264.72L2099.7,1265.19L2099.57,1265.5L2099.37,1265.95L2099.24,1266.27L2099.04,1266.73L2098.9,1267.04L2098.7,1267.51L2098.57,1267.8L2098.34,1268.32L2098.23,1268.56L2097.89,1269.33C2097.89,1269.33 2097.95,1269.73 2097.95,1269.73L2097.96,1269.86L2098.02,1270.23L2098.04,1270.41L2098.12,1270.94L2098.15,1271.14L2098.24,1271.85L2098.27,1272.06L2098.4,1272.96L2098.42,1273.14L2098.57,1274.28L2098.59,1274.39ZM1844.2,1233.29C1844.2,1233.29 1840.39,1203.84 1835.26,1117.29C1835.14,1115.36 1836.47,1114.76 1837.2,1114.6C1838.5,1114.31 1839.49,1115.15 1839.61,1115.89L1861.06,1247.99C1855.13,1242.54 1849.49,1237.65 1844.2,1233.29Z" style="fill:rgb(40,98,94);"/>
                <path d="M1777.1,859.145C1791.06,841.824 1812.44,830.734 1836.4,830.734C1878.41,830.734 1912.52,864.843 1912.52,906.857C1912.52,930.628 1901.6,951.869 1884.51,965.831L1857.94,939.44C1860.77,939.238 1863.69,938.488 1866.52,937.142C1876.53,932.376 1879.1,919.845 1875.25,911.756C1871.39,903.668 1860.14,900.97 1850.14,905.736C1843.65,908.828 1841.68,916.401 1840.46,922.076L1777.1,859.145Z"/>
            </g>
            <g id="WORLD">
                <g transform="matrix(1,0,0,1,-479.57,-66.72)">
                    <circle cx="1586.16" cy="1000.86" r="135.295" style="fill:rgb(168,207,204);"/>
                </g>
                <path d="M974.727,903.753C975.706,903.315 976.901,903.061 978.346,903.316C981.194,903.818 983.218,906.257 983.301,909.039C984.248,910.719 986.804,915.11 989.852,919.249C997.049,929.026 1009.19,943.07 1026,957.403C1033.7,924.459 1048.44,896.989 1064.74,874.964C1040.67,856.392 1027.43,839.285 1024.74,836.018C1022.63,833.462 1023,829.678 1025.55,827.571C1028.11,825.465 1031.89,825.829 1034,828.384C1036.57,831.499 1049.18,847.785 1072.12,865.463C1103.38,827.127 1137.24,808.042 1137.24,808.042C1140.12,806.416 1143.78,807.437 1145.41,810.322C1147.04,813.206 1146.02,816.869 1143.13,818.495C1143.13,818.495 1111.28,836.453 1081.75,872.516C1104.62,888.417 1135.72,904.196 1175.26,911.523C1179.51,882.677 1177.96,855.877 1174.97,836.013C1174.48,832.738 1176.74,829.68 1180.01,829.186C1183.29,828.693 1186.35,830.951 1186.84,834.226C1189.98,855.088 1191.55,883.166 1187.09,913.421C1202.48,915.513 1219.06,916.31 1236.83,915.375C1238.3,915.298 1239.66,915.753 1240.75,916.571C1241.13,919.481 1241.41,922.419 1241.61,925.382C1240.58,926.523 1239.12,927.272 1237.46,927.358C1218.74,928.343 1201.27,927.494 1185.04,925.271C1179.23,954.538 1167.43,985.177 1145.77,1012.84C1167.55,1016 1191.37,1016.19 1217.15,1012.09C1213.79,1016.85 1210.12,1021.39 1206.19,1025.67C1181.16,1028.41 1157.99,1027.32 1136.74,1023.55C1122.21,1039.57 1103.98,1054.32 1081.22,1066.87C1081.14,1066.92 1081.05,1066.96 1080.96,1067C1078.5,1066.53 1076.07,1065.99 1073.66,1065.39C1073.44,1065.12 1073.24,1064.83 1073.07,1064.51C1071.47,1061.61 1072.53,1057.96 1075.43,1056.36C1094.42,1045.88 1110.07,1033.78 1122.91,1020.66C1087.29,1012.1 1057.6,996.166 1034.23,979.084C1031.61,998.515 1031.62,1019.72 1035.3,1042.7C1035.62,1044.72 1034.89,1046.67 1033.51,1047.99C1029.81,1045.61 1026.24,1043.06 1022.8,1040.34C1019.2,1015.05 1019.8,991.829 1023.34,970.696C994.976,947.677 977.935,924.417 973.146,915.653C972.977,915.344 972.821,915.046 972.676,914.758C973.211,911.037 973.897,907.365 974.727,903.753ZM1074.35,882.028C1058,904.156 1043.3,932.089 1036.45,965.854C1060.71,984.453 1092.82,1002.23 1132.2,1010.44C1155.08,983.258 1167.31,952.623 1173.2,923.37C1131.32,915.65 1098.44,898.875 1074.35,882.028ZM978.295,915.142C978.015,915.19 977.73,915.217 977.442,915.224C977.154,915.23 976.862,915.216 976.568,915.179C977.194,915.26 977.768,915.239 978.295,915.142Z" style="fill:rgb(130,181,178);"/>
            </g>
            <g id="GIRL">
                <g>
                    <path d="M644.761,1189.69C644.761,1189.69 445.93,1032.37 584.042,846.035C598.742,826.204 687.942,710.612 814.698,632.264C819.647,629.195 826.018,629.705 830.418,633.521C833.223,636.015 835.047,639.823 833.238,645.67C833.238,645.67 852.855,641.394 851.503,660.24C851.503,660.24 874.474,654.08 875.272,677.743C875.272,677.743 913.249,631.207 929.794,610.932C934.131,605.619 941.711,604.296 947.59,607.828C947.591,607.829 947.591,607.829 947.592,607.829C950.26,609.432 952.181,612.029 952.932,615.049C953.683,618.069 953.202,621.264 951.595,623.929C880.999,740.849 805.955,848.118 730.686,954.9C730.686,954.9 792.775,1017.71 824.77,1040.32C837.762,1049.49 967.589,1130.61 986.363,1175.03C986.363,1175.03 987.946,1164.85 989.75,1153.26C992.874,1133.16 1007.69,1116.88 1027.39,1111.86C1040.75,1108.46 1053.15,1105.3 1053.15,1105.3C1053.15,1105.3 1075.31,1101.52 1094.18,1101.67C1106.54,1101.76 1117.46,1109.71 1121.36,1121.43C1121.36,1121.43 1121.36,1121.43 1121.36,1121.43C1123.15,1126.84 1122.4,1132.77 1119.3,1137.55C1117.55,1140.26 1116,1142.64 1116,1142.64C1116,1142.64 1120.45,1144.15 1124.58,1145.55C1128.98,1147.04 1132.53,1150.33 1134.36,1154.6C1134.36,1154.6 1134.36,1154.6 1134.36,1154.6C1137.92,1162.92 1136.39,1172.55 1130.42,1179.36C1128.56,1181.49 1127.18,1183.06 1127.18,1183.06L1128.53,1183.06C1135.57,1183.06 1141.9,1187.34 1144.53,1193.88C1144.53,1193.88 1144.53,1193.88 1144.53,1193.88C1148.14,1202.86 1145.22,1213.14 1137.44,1218.89C1135.51,1220.31 1134.17,1221.31 1134.17,1221.31C1136.61,1220.48 1138.89,1222.16 1140.49,1226.01C1143.66,1233.62 1140.75,1242.41 1133.85,1246.92C1123.09,1253.95 1108.89,1263.23 1108.89,1263.23C1105.7,1328.86 1097.77,1399.65 1060.52,1484.02C1049.28,1509.39 1027.17,1528.3 1000.37,1535.47C1000.35,1535.49 1000.33,1535.49 1000.31,1535.5C944.21,1550.5 885.418,1523.19 860.701,1470.65C848.835,1445.4 836.162,1414.28 824.77,1377.63C824.77,1377.63 777.61,1383.79 730.686,1360.03C674.315,1331.49 618.285,1266.79 644.761,1189.69Z" style="fill:url(#_Linear2);"/>
                    <path d="M559.973,1082.52C565.895,1064.34 586.565,1023.51 652.204,1027.35C652.204,1027.35 675.485,959.466 749.097,973.124C769.977,993.484 803.823,1025.52 824.77,1040.32C837.762,1049.49 967.589,1130.61 986.363,1175.03L986.58,1173.64C998.696,1209.2 1020.7,1285.52 1009.64,1368.11C1009.64,1368.11 966.054,1397.26 923.661,1360.64C923.661,1360.64 883.53,1413.88 825.491,1379.93C825.249,1379.16 825.009,1378.4 824.77,1377.63C824.77,1377.63 777.61,1383.79 730.686,1360.03C674.315,1331.49 618.285,1266.79 644.761,1189.69C644.761,1189.69 592.272,1148.16 559.973,1082.52ZM835.917,1022.62L852.997,1033.25C846.837,1030.44 841.101,1026.86 835.917,1022.62Z" style="fill:rgb(253,149,0);"/>
                    <path d="M1003.67,1348.9L993.98,1458.34C993.785,1460.54 995.413,1462.49 997.612,1462.68C999.811,1462.88 1001.75,1461.25 1001.95,1459.05L1011.63,1349.61C1011.83,1347.41 1010.2,1345.46 1008,1345.27C1005.8,1345.07 1003.86,1346.7 1003.67,1348.9Z" style="fill:rgb(253,149,0);"/>
                    <path d="M795.991,1377.79C792.582,1337.75 801.686,1305.19 807.773,1288.59C808.261,1287.43 809.495,1286.79 810.723,1287.04C811.95,1287.29 812.832,1288.37 812.83,1289.62C814.009,1322.17 822.578,1366.02 825.34,1379.45C825.149,1378.84 824.959,1378.24 824.77,1377.63C824.77,1377.63 813.275,1379.13 795.991,1377.79ZM617.045,1163.47C631.52,1145.51 645.83,1131.92 659.152,1121.63C679.667,1105.78 697.838,1097.76 710.65,1093.66C712.132,1093.33 713.641,1094.11 714.235,1095.5C714.829,1096.9 714.339,1098.52 713.071,1099.36C674.31,1125.88 652.204,1171.81 644.724,1189.66C643.991,1189.07 632.417,1179.78 617.045,1163.47Z" style="fill:rgb(225,93,51);"/>
                    <path d="M1134.25,1221.28C1136.67,1220.52 1138.91,1222.21 1140.49,1226.01C1140.58,1226.22 1140.66,1226.43 1140.74,1226.64C1133.35,1231.26 1117.28,1240.38 1102.6,1242.41C1100.41,1242.71 1098.39,1241.18 1098.09,1239C1097.78,1236.81 1099.31,1234.79 1101.5,1234.49C1113.66,1232.81 1126.82,1225.78 1134.25,1221.28ZM1127.19,1183.06L1128.53,1183.06C1131.79,1183.06 1134.9,1183.98 1137.56,1185.62C1133.15,1188.84 1115.58,1201.08 1097.17,1205.46C1095.02,1205.97 1092.87,1204.64 1092.35,1202.49C1091.84,1200.35 1093.17,1198.19 1095.32,1197.68C1107.89,1194.68 1120.03,1187.72 1127.19,1183.06ZM1116.05,1142.66L1124.01,1145.36C1116.68,1154.83 1102.93,1168.91 1083.78,1172.75C1081.62,1173.19 1079.51,1171.78 1079.07,1169.62C1078.64,1167.45 1080.04,1165.34 1082.21,1164.91C1097.78,1161.78 1109.28,1150.94 1116.05,1142.66Z" style="fill:rgb(253,149,0);"/>
                    <path d="M1062.53,1116.29C1062.53,1116.29 1048.88,1119.3 1034.49,1117.25C1032.3,1116.94 1030.28,1118.47 1029.96,1120.65C1029.65,1122.84 1031.18,1124.86 1033.36,1125.17C1049.21,1127.43 1064.25,1124.11 1064.25,1124.11C1066.4,1123.63 1067.77,1121.49 1067.29,1119.34C1066.82,1117.18 1064.68,1115.82 1062.53,1116.29Z" style="fill:rgb(253,149,0);"/>
                    <path d="M873.062,667.876C874.315,670.382 875.132,673.607 875.272,677.743L881.309,670.345C881.192,670.558 881.052,670.763 880.892,670.958L865.925,689.082C864.519,690.784 861.996,691.025 860.294,689.619C858.592,688.213 858.351,685.69 859.757,683.988L873.062,667.876ZM849.478,650.382C850.967,652.614 851.821,655.773 851.504,660.224L842.225,670.848C840.773,672.511 838.244,672.682 836.581,671.23C834.918,669.778 834.747,667.249 836.199,665.586L849.478,650.382ZM832.267,635.606C833.899,638.007 834.603,641.258 833.238,645.67L833.239,645.67C828.231,650.391 822.455,655.869 822.455,655.869C820.853,657.388 818.319,657.321 816.8,655.719C815.281,654.117 815.348,651.583 816.95,650.064C816.95,650.064 827.178,640.366 832.267,635.606Z" style="fill:rgb(253,149,0);"/>
                    <path d="M730.686,954.9C730.686,954.9 704.288,928.834 688.653,913.395C687.579,912.334 687.416,910.677 688.263,909.434C689.109,908.191 690.731,907.708 692.137,908.28C712.771,916.677 747.778,930.922 747.778,930.922L730.686,954.9Z" style="fill:rgb(253,149,0);"/>
                </g>
                <g transform="matrix(0.859489,0.511155,-0.511155,0.859489,251.905,-741.212)">
                    <g>
                        <g transform="matrix(0.859489,-0.511155,0.511155,0.859489,162.365,765.825)">
                            <path d="M1049.64,1125.68L1055.71,1081.16C1046.01,1077.8 1036.51,1073.42 1027.34,1067.96C1019.75,1063.45 1017.25,1053.62 1021.76,1046.03C1026.28,1038.44 1036.11,1035.95 1043.69,1040.46C1101.44,1074.81 1176.21,1055.8 1210.56,998.054C1244.9,940.305 1225.9,865.537 1168.15,831.192C1160.56,826.678 1158.06,816.851 1162.58,809.262C1167.09,801.672 1176.92,799.174 1184.51,803.688C1257.44,847.061 1281.43,941.482 1238.06,1014.41C1205.91,1068.47 1145.72,1095.64 1087.02,1088.42L1083.07,1117.38C1075.83,1120.81 1063.83,1125.25 1049.64,1125.68Z" style="fill:rgb(220,93,60);"/>
                        </g>
                        <g transform="matrix(1,0,0,1,-20.3138,-7.3432)">
                            <path d="M1611.56,1133.94C1544.37,1133.94 1489.82,1079.39 1489.82,1012.2C1489.82,945.012 1544.37,890.462 1611.56,890.462C1620.39,890.462 1627.56,883.292 1627.56,874.462C1627.56,865.631 1620.39,858.462 1611.56,858.462C1526.71,858.462 1457.82,927.35 1457.82,1012.2C1457.82,1097.05 1526.71,1165.94 1611.56,1165.94C1620.39,1165.94 1627.56,1158.77 1627.56,1149.94C1627.56,1141.11 1620.39,1133.94 1611.56,1133.94Z" style="fill:rgb(220,93,60);"/>
                        </g>
                    </g>
                </g>
                <g>
                    <circle cx="885.597" cy="961.656" r="78.659" style="fill:rgb(255,187,34);"/>
                    <path d="M858.246,992.726C844.057,995.173 828.957,995.52 813.295,992.665C809.205,983.15 806.938,972.666 806.938,961.656C806.938,918.243 842.184,882.997 885.597,882.997C920.202,882.997 949.618,905.391 960.128,936.46C956.832,951.251 932.081,980.793 881.237,986.815C882.882,982.608 883.016,977.496 881.246,972.525C877.772,962.769 868.272,957.226 860.045,960.155C851.818,963.084 847.959,973.384 851.433,983.14C852.858,987.142 855.297,990.436 858.246,992.726Z"/>
                    <g transform="matrix(0.715949,0,0,0.715949,270.378,125.494)">
                        <circle cx="897.184" cy="975.4" r="74.928"/>
                    </g>
                </g>
            </g>
            <g id="PIE-CHART" serif:id="PIE CHART">
                <g transform="matrix(1,0,0,1,-10.5812,7.59404)">
                    <path d="M1492.3,645.934C1463.35,700.787 1405.72,738.195 1339.42,738.195C1244.04,738.195 1166.59,660.751 1166.59,565.361C1166.59,507.314 1195.27,455.913 1239.25,424.605L1339.42,565.361L1492.3,645.934Z" style="fill:rgb(229,115,78);"/>
                </g>
                <path d="M1328.84,572.955L1228.67,432.199C1253.75,414.268 1283.84,402.916 1316.42,400.616L1328.84,572.955Z" style="fill:rgb(255,187,34);"/>
                <path d="M1320.92,400.322L1328.84,400.122C1377.43,400.122 1421.37,420.217 1452.76,452.578L1328.84,572.955L1316.42,400.616L1318.76,400.437L1320.92,400.322Z" style="fill:rgb(168,207,204);"/>
                <g transform="matrix(1,0,0,1,46.71,-10.1252)">
                    <path d="M1452.76,452.578C1483.04,483.678 1501.68,526.157 1501.68,572.955C1501.68,602.049 1494.47,629.474 1481.72,653.528L1328.84,572.955L1452.76,452.578Z" style="fill:rgb(255,203,196);"/>
                </g>
            </g>
        </g>
    </g>
    <defs>
        <linearGradient id="_Linear1" x1="0" y1="0" x2="1" y2="0" gradientUnits="userSpaceOnUse" gradientTransform="matrix(432.261,333.876,-339.612,424.961,1800.34,1289.08)"><stop offset="0" style="stop-color:rgb(130,181,178);stop-opacity:1"/><stop offset="0.57" style="stop-color:rgb(154,193,187);stop-opacity:1"/><stop offset="0.8" style="stop-color:rgb(206,217,207);stop-opacity:1"/><stop offset="1" style="stop-color:rgb(255,241,226);stop-opacity:1"/></linearGradient>
        <linearGradient id="_Linear2" x1="0" y1="0" x2="1" y2="0" gradientUnits="userSpaceOnUse" gradientTransform="matrix(-388.509,97.5106,-99.1858,-381.947,852.592,1342.73)"><stop offset="0" style="stop-color:rgb(255,187,34);stop-opacity:1"/><stop offset="0.47" style="stop-color:rgb(254,176,25);stop-opacity:1"/><stop offset="1" style="stop-color:rgb(253,149,0);stop-opacity:1"/></linearGradient>
    </defs>
</svg>
